<svg xmlns="http://www.w3.org/2000/svg" width="394.722" height="394.383" viewBox="0 0 394.722 394.383"><defs><style>.a,.e{fill:#e0e0e0;}.a,.b,.c{fill-rule:evenodd;}.b,.f{fill:#f5f5f5;}.c,.d{fill:#ebebeb;}.g{fill:#fafafa;}.h,.i{fill:#fff;}.i{stroke:rgba(42,44,59,0.7);stroke-width:0.5px;}.j{fill:#263238;}.k{fill:#e8505b;}.l{fill:#455a64;}.m{opacity:0.3;}.n{opacity:0.2;}</style></defs><g transform="translate(-0.005 0.004)"><path class="a" d="M217.878,125.95a33.5,33.5,0,0,1-.378,8.909l6.545,5.052-5.762,12.406-8.082-1.739a33.535,33.535,0,0,1-6.563,6.038l1.054,8.2-12.846,4.7-4.484-6.941a33.468,33.468,0,0,1-8.91-.379L173.4,168.74,161,162.98l1.738-8.083a33.5,33.5,0,0,1-6.036-6.564l-8.2,1.055-4.7-12.847,6.942-4.483a33.469,33.469,0,0,1,.379-8.91l-6.545-5.053,5.761-12.406,8.083,1.74a33.625,33.625,0,0,1,6.563-6.038l-1.054-8.2,12.847-4.7,4.483,6.942a33.469,33.469,0,0,1,8.91.378l5.053-6.544,12.4,5.76-1.739,8.084a33.508,33.508,0,0,1,6.038,6.563l8.2-1.055,4.7,12.846-6.942,4.485ZM198.3,124.544a14.674,14.674,0,1,0-8.74,18.821,14.674,14.674,0,0,0,8.74-18.821Z" transform="translate(-39.228 -26.512)"/><path class="b" d="M212.9,51.272a22.177,22.177,0,0,1-.25,5.888l4.326,3.339-3.808,8.2-5.343-1.15a22.116,22.116,0,0,1-4.338,3.991l.7,5.418-8.491,3.1-2.964-4.588a22.1,22.1,0,0,1-5.889-.25l-3.34,4.326-8.2-3.808,1.149-5.343a22.11,22.11,0,0,1-3.99-4.338l-5.418.7-3.107-8.492,4.589-2.964a22.141,22.141,0,0,1,.25-5.889l-4.326-3.34,3.808-8.2,5.343,1.15a22.234,22.234,0,0,1,4.338-3.991l-.7-5.417,8.492-3.106,2.963,4.588a22.141,22.141,0,0,1,5.889.25l3.34-4.325,8.2,3.807-1.15,5.343a22.174,22.174,0,0,1,3.991,4.338l5.417-.7,3.106,8.491Zm-12.938-.93a9.7,9.7,0,1,0-5.777,12.441,9.7,9.7,0,0,0,5.777-12.441Z" transform="translate(-39.228 -26.512)"/><path class="b" d="M271.349,149.826a17.5,17.5,0,0,1-.2,4.642l3.41,2.633-3,6.465-4.212-.906a17.5,17.5,0,0,1-3.42,3.146l.549,4.272-6.694,2.448-2.337-3.617a17.42,17.42,0,0,1-4.642-.2l-2.634,3.411-6.464-3,.906-4.212a17.5,17.5,0,0,1-3.146-3.421l-4.271.55-2.449-6.694,3.618-2.337a17.42,17.42,0,0,1,.2-4.642l-3.411-2.634,3-6.465,4.213.907a17.491,17.491,0,0,1,3.419-3.146l-.549-4.271,6.7-2.449,2.336,3.618a17.427,17.427,0,0,1,4.643.2l2.633-3.411,6.464,3-.906,4.212a17.442,17.442,0,0,1,3.146,3.421l4.271-.55,2.449,6.694-3.617,2.337Zm-10.2-.733A7.646,7.646,0,1,0,256.6,158.9a7.646,7.646,0,0,0,4.554-9.808Z" transform="translate(-39.228 -26.512)"/><path class="c" d="M265.007,95.907a20.017,20.017,0,0,1-.225,5.319l3.907,3.016-3.44,7.408-4.826-1.039a20,20,0,0,1-3.918,3.606l.63,4.894-7.671,2.8-2.677-4.145a19.981,19.981,0,0,1-5.32-.226l-3.017,3.907-7.406-3.439,1.037-4.826a20.031,20.031,0,0,1-3.6-3.919l-4.894.63-2.806-7.671,4.145-2.677a19.972,19.972,0,0,1,.226-5.319l-3.908-3.018,3.44-7.407,4.826,1.039a20.063,20.063,0,0,1,3.919-3.605l-.629-4.893,7.67-2.806,2.677,4.145a19.939,19.939,0,0,1,5.32.226L251.48,74l7.406,3.439-1.038,4.827a20,20,0,0,1,3.6,3.919l4.893-.63,2.806,7.67L265,95.9Zm-11.687-.84a8.761,8.761,0,1,0-5.218,11.238,8.761,8.761,0,0,0,5.218-11.238Z" transform="translate(-39.228 -26.512)"/><path class="c" d="M83.459,225.055a20.013,20.013,0,0,1-.226,5.319l3.907,3.017L83.7,240.8l-4.825-1.038a20.036,20.036,0,0,1-3.919,3.6l.63,4.894-7.671,2.8-2.677-4.145a19.94,19.94,0,0,1-5.32-.226L56.9,250.6l-7.4-3.438,1.038-4.827a20.036,20.036,0,0,1-3.605-3.919l-4.894.63-2.806-7.67,4.145-2.677a19.979,19.979,0,0,1,.226-5.32L39.7,220.362l3.44-7.407,4.827,1.038a20.054,20.054,0,0,1,3.918-3.6l-.629-4.894,7.67-2.806,2.677,4.145a19.978,19.978,0,0,1,5.32.226l3.017-3.908,7.407,3.44L76.3,211.418a20,20,0,0,1,3.6,3.919l4.894-.63,2.8,7.67-4.144,2.678Zm-11.688-.84a8.761,8.761,0,1,0-5.218,11.238,8.761,8.761,0,0,0,5.218-11.238Z" transform="translate(-39.228 -26.512)"/><path class="d" d="M379.176,58.363l7.7,24.354H381.3l-2.458-8.4Z"/><rect class="d" width="114.971" height="6.873" transform="translate(279.756 82.694)"/><rect class="d" width="5.562" height="10.549" transform="translate(295.778 88.062)"/><rect class="d" width="5.562" height="10.549" transform="translate(367.564 88.062)"/><path class="d" d="M322.889,77.348s-5.159,3.931-.216,9.124a.451.451,0,0,0,.327.139l45.081-.263s3.849-4.318.655-9.294Z" transform="translate(-39.228 -26.512)"/><path class="e" d="M358.117,81.451c0,.05-5.613.091-12.536.091s-12.538-.041-12.538-.091,5.612-.091,12.538-.091S358.117,81.4,358.117,81.451Z" transform="translate(-39.228 -26.512)"/><path class="e" d="M351.105,83.082c0,.05-2.639.091-5.894.091s-5.894-.041-5.894-.091,2.638-.091,5.894-.091S351.105,83.031,351.105,83.082Z" transform="translate(-39.228 -26.512)"/><path class="e" d="M362.727,86.2c-.03-.007.1-.517.238-1.352a18.643,18.643,0,0,0-.062-6.573c-.155-.832-.293-1.34-.264-1.348a1.446,1.446,0,0,1,.131.347c.075.226.165.559.26.975a15.971,15.971,0,0,1,.062,6.622c-.086.418-.17.753-.241.98a1.473,1.473,0,0,1-.124.349Z" transform="translate(-39.228 -26.512)"/><path class="e" d="M366.091,77a1.561,1.561,0,0,1,.2.328,3.783,3.783,0,0,1,.2.4c.071.161.159.342.23.552a9.466,9.466,0,0,1,.429,1.5,10.02,10.02,0,0,1,.031,3.8,9.571,9.571,0,0,1-.4,1.5c-.067.211-.153.393-.221.555a3.778,3.778,0,0,1-.194.407,1.55,1.55,0,0,1-.2.33c-.032-.015.22-.5.488-1.334a10.844,10.844,0,0,0,.362-1.49,10.725,10.725,0,0,0-.03-3.737,10.938,10.938,0,0,0-.386-1.484C366.319,77.5,366.06,77.014,366.091,77Z" transform="translate(-39.228 -26.512)"/><path class="e" d="M330,86.264a1.517,1.517,0,0,1-.21-.3,3.251,3.251,0,0,1-.21-.376,5.121,5.121,0,0,1-.241-.518,7.965,7.965,0,0,1-.44-1.422,8.384,8.384,0,0,1,.049-3.627,7.87,7.87,0,0,1,.478-1.41,5.314,5.314,0,0,1,.254-.512,3.16,3.16,0,0,1,.221-.37,1.4,1.4,0,0,1,.218-.3c.031.019-.259.455-.575,1.228a8.727,8.727,0,0,0-.08,6.365C329.755,85.8,330.034,86.245,330,86.264Z" transform="translate(-39.228 -26.512)"/><path class="e" d="M325.135,87.363a1.727,1.727,0,0,1-.232-.342,3.726,3.726,0,0,1-.235-.423c-.084-.17-.188-.359-.273-.581a9.563,9.563,0,0,1-.516-1.592,10.072,10.072,0,0,1-.091-4.077,9.529,9.529,0,0,1,.446-1.613c.074-.226.171-.42.246-.593a3.848,3.848,0,0,1,.217-.433,1.794,1.794,0,0,1,.216-.352c.033.017-.256.53-.558,1.421a10.474,10.474,0,0,0-.4,1.6,10.622,10.622,0,0,0,.56,5.591C324.856,86.845,325.167,87.345,325.135,87.363Z" transform="translate(-39.228 -26.512)"/><path class="d" d="M366.427,100.077V108.7H349.734v-8.627Z" transform="translate(-39.228 -26.512)"/><path class="e" d="M312.515,104.471c0,.076.006.152.01.228a4.943,4.943,0,0,0,4.965,4.629h49.715V108.7H355.4a4.313,4.313,0,0,1-4.313-4.313h0a4.313,4.313,0,0,1,4.314-4.314h11.8v-.916l-49.729.168a4.972,4.972,0,0,0-4.956,5.146Z" transform="translate(-39.228 -26.512)"/><path class="e" d="M366.427,104.506c0,.05-3.432.091-7.665.091s-7.666-.041-7.666-.091,3.431-.091,7.666-.091S366.427,104.456,366.427,104.506Z" transform="translate(-39.228 -26.512)"/><path class="e" d="M366.185,106.45c0,.05-3.247.091-7.253.091s-7.253-.041-7.253-.091,3.247-.091,7.253-.091S366.185,106.4,366.185,106.45Z" transform="translate(-39.228 -26.512)"/><path class="e" d="M366.427,108.227c0,.051-2.92.091-6.521.091s-6.522-.04-6.522-.091,2.919-.091,6.522-.091S366.427,108.177,366.427,108.227Z" transform="translate(-39.228 -26.512)"/><path class="e" d="M366.427,102.759c0,.051-3.362.091-7.508.091s-7.509-.04-7.509-.091,3.361-.091,7.509-.091S366.427,102.709,366.427,102.759Z" transform="translate(-39.228 -26.512)"/><path class="e" d="M366.185,101.013c0,.05-2.992.091-6.683.091s-6.684-.041-6.684-.091,2.992-.091,6.684-.091S366.185,100.962,366.185,101.013Z" transform="translate(-39.228 -26.512)"/><path class="f" d="M318.538,99.473a11.049,11.049,0,0,0-1.056,1.256,6.387,6.387,0,0,0,.087,7.393,11.306,11.306,0,0,0,1.085,1.231,1.746,1.746,0,0,1-.358-.265,5.725,5.725,0,0,1-.831-.89,6.291,6.291,0,0,1-.089-7.542,5.715,5.715,0,0,1,.809-.91,1.747,1.747,0,0,1,.353-.273Z" transform="translate(-39.228 -26.512)"/><path class="f" d="M316.857,99.289a10.922,10.922,0,0,0-1.056,1.256,6.387,6.387,0,0,0,.087,7.393,11.179,11.179,0,0,0,1.085,1.231,1.8,1.8,0,0,1-.358-.265,5.677,5.677,0,0,1-.831-.89,6.293,6.293,0,0,1-.089-7.543,5.749,5.749,0,0,1,.809-.909A1.7,1.7,0,0,1,316.857,99.289Z" transform="translate(-39.228 -26.512)"/><path class="f" d="M350.637,99.473a11.05,11.05,0,0,0-1.056,1.256,6.391,6.391,0,0,0,.087,7.393,11.108,11.108,0,0,0,1.086,1.231,1.7,1.7,0,0,1-.359-.265,5.725,5.725,0,0,1-.831-.89,6.291,6.291,0,0,1-.089-7.542,5.666,5.666,0,0,1,.81-.91,1.8,1.8,0,0,1,.352-.273Z" transform="translate(-39.228 -26.512)"/><path class="f" d="M348.956,99.289a11.048,11.048,0,0,0-1.056,1.256,6.387,6.387,0,0,0,.087,7.393,11.108,11.108,0,0,0,1.086,1.231,1.749,1.749,0,0,1-.359-.265,5.727,5.727,0,0,1-.831-.89,6.293,6.293,0,0,1-.089-7.543,5.693,5.693,0,0,1,.81-.909,1.748,1.748,0,0,1,.352-.273Z" transform="translate(-39.228 -26.512)"/><path class="f" d="M324.2,105.683l-.048-3.507a2.5,2.5,0,0,0-.123-.9.85.85,0,0,0-.666-.562,1.335,1.335,0,0,0-1.431.678,3.332,3.332,0,0,0-.345,1.719,25.137,25.137,0,0,0,.135,2.771,3.182,3.182,0,0,0,.326,1.268,1.184,1.184,0,0,0,1.07.644,1.2,1.2,0,0,0,.938-.814A3.554,3.554,0,0,0,324.2,105.683Z" transform="translate(-39.228 -26.512)"/><path class="f" d="M343.5,104.674c0,.051-3.594.091-8.027.091s-8.027-.04-8.027-.091,3.593-.091,8.027-.091S343.5,104.624,343.5,104.674Z" transform="translate(-39.228 -26.512)"/><path class="f" d="M281.637,72.617l-.092-8.177H286l.153,8.177Z"/><path class="e" d="M324.962,92.406a23.555,23.555,0,0,1-4.137,0,23.554,23.554,0,0,1,4.137,0Z" transform="translate(-39.228 -26.512)"/><path class="e" d="M324.962,93.668a23.555,23.555,0,0,1-4.137,0,23.554,23.554,0,0,1,4.137,0Z" transform="translate(-39.228 -26.512)"/><path class="e" d="M324.962,94.93a23.555,23.555,0,0,1-4.137,0,23.553,23.553,0,0,1,4.137,0Z" transform="translate(-39.228 -26.512)"/><path class="e" d="M324.962,96.192a23.555,23.555,0,0,1-4.137,0,23.554,23.554,0,0,1,4.137,0Z" transform="translate(-39.228 -26.512)"/><path class="e" d="M324.962,97.454a23.555,23.555,0,0,1-4.137,0,23.553,23.553,0,0,1,4.137,0Z" transform="translate(-39.228 -26.512)"/><path class="d" d="M320.537,90.735h49.334a23.181,23.181,0,0,1,0,8.838H320.748v-.6h3a1.418,1.418,0,0,0,1.418-1.418V92.663a1.417,1.417,0,0,0-1.418-1.417h-3.212Z" transform="translate(-39.228 -26.512)"/><path class="g" d="M332.2,95.159h.823a.2.2,0,0,1,.089.022.168.168,0,0,1,.088.155.2.2,0,0,1-.006.053c-.016.07-.035.14-.056.211a2.333,2.333,0,0,1-.515.931.974.974,0,0,1-.7.363.845.845,0,0,1-.1-.006.8.8,0,0,1-.56-.405,1.852,1.852,0,0,1-.246-.992,2.631,2.631,0,0,1,.1-.706,2.352,2.352,0,0,1,.489-.954.993.993,0,0,1,.741-.394.707.707,0,0,1,.312.071,1.008,1.008,0,0,1,.48.6.174.174,0,0,1,.02.082.178.178,0,0,1-.024.089.171.171,0,0,1-.153.088.181.181,0,0,1-.055-.009.166.166,0,0,1-.113-.111l-.009-.015a.889.889,0,0,0-.1-.2.47.47,0,0,0-.394-.235.463.463,0,0,0-.272.1,1.459,1.459,0,0,0-.45.646,2.429,2.429,0,0,0-.195.929,1.667,1.667,0,0,0,.142.729.48.48,0,0,0,.43.323.588.588,0,0,0,.4-.24,2.2,2.2,0,0,0,.422-.765c-.379,0-.576,0-.59-.006-.129-.021-.2-.087-.2-.2a.162.162,0,0,1,.017-.06A.187.187,0,0,1,332.2,95.159Z" transform="translate(-39.228 -26.512)"/><path class="g" d="M335,93.552c.007.017.015.037.022.06q.052.182.581,3.057a.14.14,0,0,1,.008.044.191.191,0,0,1-.024.091.163.163,0,0,1-.147.09h-.028a.161.161,0,0,1-.137-.122l-.2-1.015h-1.013l-.488,1.019a.175.175,0,0,1-.016.034.2.2,0,0,1-.152.086.177.177,0,0,1-.177-.177.129.129,0,0,1,.011-.053c.03-.071.081-.183.151-.335q1.064-2.322,1.272-2.741a.192.192,0,0,1,.171-.124.188.188,0,0,1,.166.086Zm-.221.684-.548,1.153H335Z" transform="translate(-39.228 -26.512)"/><path class="g" d="M337.753,96.894h-1.487a.169.169,0,0,1-.1-.029.275.275,0,0,1-.084-.186h0q0-.09.411-3.044a.462.462,0,0,1,.009-.065.174.174,0,0,1,.335.069q-.02.2-.1.834-.255,1.95-.267,2.058h1.264a.247.247,0,0,1,.095.018.166.166,0,0,1,.113.166.187.187,0,0,1-.009.057.206.206,0,0,1-.18.122Z" transform="translate(-39.228 -26.512)"/><path class="g" d="M339.786,93.552c.007.017.014.037.022.06q.053.182.581,3.057a.14.14,0,0,1,.008.044.191.191,0,0,1-.024.091.164.164,0,0,1-.148.09H340.2a.16.16,0,0,1-.136-.122l-.2-1.015h-1.014l-.487,1.019a.175.175,0,0,1-.016.034.2.2,0,0,1-.153.086.179.179,0,0,1-.177-.177.148.148,0,0,1,.011-.053c.031-.071.081-.183.151-.335q1.064-2.322,1.272-2.741a.193.193,0,0,1,.172-.124.189.189,0,0,1,.166.086Zm-.221.684-.549,1.153h.774Z" transform="translate(-39.228 -26.512)"/><path class="g" d="M342.155,95.307l.268.745c.154.424.231.647.231.671a.158.158,0,0,1-.029.09.169.169,0,0,1-.149.081.161.161,0,0,1-.147-.119c-.011-.032-.021-.057-.028-.075q-.121-.278-.4-1.049l-.842,1.15a.2.2,0,0,1-.157.093.189.189,0,0,1-.092-.024.163.163,0,0,1-.084-.149v-.037a.436.436,0,0,1,.089-.144q.423-.546.934-1.3c-.036-.1-.069-.192-.1-.28q-.474-1.272-.474-1.315a.194.194,0,0,1,.022-.091.156.156,0,0,1,.144-.088.181.181,0,0,1,.166.1l.5,1.339L343,93.55a.2.2,0,0,1,.158-.084.174.174,0,0,1,.082.02.168.168,0,0,1,.086.158.218.218,0,0,1-.018.082Z" transform="translate(-39.228 -26.512)"/><path class="g" d="M345.834,93.475a.184.184,0,0,1,.082.02.176.176,0,0,1,.1.153q-.365,2.883-.4,3.116a1.907,1.907,0,0,1-.319.812,1.145,1.145,0,0,1-1.463.358,1.052,1.052,0,0,1-.524-.46.181.181,0,0,1-.02-.086.178.178,0,0,1,.024-.089.169.169,0,0,1,.288-.015.954.954,0,0,0,.761.433.752.752,0,0,0,.591-.3,1.644,1.644,0,0,0,.328-.935.9.9,0,0,1-.753.407.692.692,0,0,1-.1-.007.792.792,0,0,1-.564-.4,1.837,1.837,0,0,1-.248-.991c0-.18.008-.366.025-.558q.042-.452.2-1.281a.178.178,0,0,1,.016-.051.163.163,0,0,1,.159-.122.172.172,0,0,1,.086.024.157.157,0,0,1,.089.142,6.668,6.668,0,0,1-.082.678,9.442,9.442,0,0,0-.118,1.037,2.083,2.083,0,0,0,.133.806q.153.363.441.363a.325.325,0,0,0,.06-.007.809.809,0,0,0,.444-.356,2.217,2.217,0,0,0,.368-.82l.225-1.695a.225.225,0,0,1,.023-.075.162.162,0,0,1,.148-.1Z" transform="translate(-39.228 -26.512)"/><path class="f" d="M368.018,99.688c-.05,0-.091-2.03-.091-4.534s.041-4.534.091-4.534.091,2.029.091,4.534S368.068,99.688,368.018,99.688Z" transform="translate(-39.228 -26.512)"/><path class="e" d="M327.648,99.688c-.05,0-.091-2.03-.091-4.534s.041-4.534.091-4.534.091,2.029.091,4.534S327.7,99.688,327.648,99.688Z" transform="translate(-39.228 -26.512)"/><path class="f" d="M368.883,99.688c-.05,0-.091-2.03-.091-4.534s.041-4.534.091-4.534.091,2.029.091,4.534S368.934,99.688,368.883,99.688Z" transform="translate(-39.228 -26.512)"/><path class="e" d="M326.839,99.688c-.05,0-.091-2.03-.091-4.534s.041-4.534.091-4.534.091,2.029.091,4.534S326.889,99.688,326.839,99.688Z" transform="translate(-39.228 -26.512)"/><path class="e" d="M356.056,92.114l-.008-.016,5.214,4.206.046.038-.057.015-.694.182-4.4,1.155h-.017L352.148,96l-1.13-.484-.3-.13-.076-.034-.025-.013a.1.1,0,0,1,.027.009l.078.03.3.123,1.135.469,4,1.672h-.018l4.4-1.161.694-.182-.011.052-5.2-4.22-.007-.006v-.01" transform="translate(-39.228 -26.512)"/><path class="e" d="M321.563,69.138l.284.267.381-.082-.166.353.2.337-.387-.049-.26.291-.073-.384-.357-.157.342-.188Z"/><path class="e" d="M316.561,70.8l.194.161.243-.068-.093.235.14.21-.252-.017-.157.2-.062-.244-.237-.088.214-.135Z"/><path class="e" d="M311.037,68.529l.309.019.192-.244.077.3.291.106-.262.167-.011.309-.239-.2-.3.085.115-.289Z"/><path class="e" d="M323.9,65.668l.31.019.191-.244.077.3.292.106-.262.167-.012.31-.239-.2-.3.085.114-.289Z"/><path class="e" d="M316.575,65.465l.2.012.122-.156.049.192.186.068-.167.106-.008.2-.152-.126-.19.054.072-.184Z"/><path class="e" d="M363.563,92.4c0,.02-1.687-.036-3.767-.125s-3.765-.178-3.764-.2,1.687.036,3.767.125S363.564,92.377,363.563,92.4Z" transform="translate(-39.228 -26.512)"/><path class="e" d="M365.458,90.658H315.423a4.2,4.2,0,0,1,0-4.165h50.035a4.828,4.828,0,0,1,0,4.165Z" transform="translate(-39.228 -26.512)"/><rect class="d" width="27.107" height="1.516" transform="translate(286.555 61.171)"/><path class="e" d="M317.344,90.68a1.45,1.45,0,0,1-.395-.5,3.681,3.681,0,0,1-.266-3.014,1.451,1.451,0,0,1,.3-.565,4.743,4.743,0,0,1-.179.6,4.208,4.208,0,0,0,.257,2.915A4.945,4.945,0,0,1,317.344,90.68Z" transform="translate(-39.228 -26.512)"/><path class="e" d="M318.426,90.68a1.463,1.463,0,0,1-.395-.5,3.675,3.675,0,0,1-.265-3.014,1.475,1.475,0,0,1,.3-.565,4.825,4.825,0,0,1-.178.6,4.215,4.215,0,0,0,.256,2.915,4.742,4.742,0,0,1,.282.564Z" transform="translate(-39.228 -26.512)"/><path class="f" d="M363.433,90.583a6.278,6.278,0,0,0,.024-4.076,4.239,4.239,0,0,1-.024,4.076Z" transform="translate(-39.228 -26.512)"/><path class="f" d="M362.5,90.573c-.055-.013.156-.892.15-1.994s-.21-1.981-.155-1.994a6.111,6.111,0,0,1,0,3.988Z" transform="translate(-39.228 -26.512)"/><path class="e" d="M344.839,38.342h34.337V83.147h-34.1Z"/><rect class="h" width="34.137" height="44.349" transform="translate(376.483 82.911) rotate(180)"/><path class="e" d="M415.881,64.9v44.688H381.4V64.9Zm-.339,44.35V65.243h-33.8v44.011Z" transform="translate(-39.228 -26.512)"/><rect class="h" width="26.135" height="34.743" transform="translate(345.906 43.373)"/><path class="e" d="M385.082,69.877v.657c0,.434,0,1.068.009,1.893,0,1.655.012,4.068.021,7.125.01,6.11.024,14.785.04,25.068l-.08-.08,26.133-.009h0l-.088.089c.006-12.938.011-24.931.016-34.743l.072.072-18.978-.037-5.284-.019-1.392-.008c-.315,0-.482-.008-.482-.008s.156,0,.467-.008l1.378-.008,5.268-.019,19.023-.037h.072v.073c0,9.812.01,21.805.016,34.743v.088H411.2l-26.133-.009H385v-.079c.016-10.3.03-19,.039-25.119.01-3.05.017-5.457.022-7.108,0-.818.007-1.447.009-1.877v-.48C385.079,69.929,385.082,69.877,385.082,69.877Z" transform="translate(-39.228 -26.512)"/><path class="e" d="M381.5,109.423a4.276,4.276,0,0,1,.461-.75c.3-.45.732-1.066,1.224-1.732s.958-1.256,1.307-1.673a4.149,4.149,0,0,1,.6-.648,4.615,4.615,0,0,1-.5.725c-.361.485-.789,1.063-1.263,1.7l-1.265,1.7a4.375,4.375,0,0,1-.559.678Z" transform="translate(-39.228 -26.512)"/><path class="e" d="M381.574,65.074a25.048,25.048,0,0,1,1.825,2.349,25,25,0,0,1,1.683,2.454,25.187,25.187,0,0,1-1.825-2.35A25.269,25.269,0,0,1,381.574,65.074Z" transform="translate(-39.228 -26.512)"/><line class="h" x1="4.493" y2="4.98" transform="translate(371.99 38.562)"/><path class="e" d="M411.218,70.053A32.114,32.114,0,0,1,413.4,67.5a31.805,31.805,0,0,1,2.312-2.431,32.238,32.238,0,0,1-2.181,2.549A31.894,31.894,0,0,1,411.218,70.053Z" transform="translate(-39.228 -26.512)"/><path class="e" d="M415.711,109.423A29.075,29.075,0,0,1,413.5,107.1a29.329,29.329,0,0,1-2.08-2.436,58.2,58.2,0,0,1,4.291,4.754Z" transform="translate(-39.228 -26.512)"/><path class="e" d="M386.333,104.619s2.812-8.713,4.481-9.638a16.025,16.025,0,0,1,7.34-1.987c3.869-.033,5.714.252,7.983,1.814,2.621,1.8,4.395,9.724,4.395,9.724" transform="translate(-39.228 -26.512)"/><path class="e" d="M394.13,78.676c-2.4.107-2.991,3.335-2.828,5.176a4.34,4.34,0,0,1-.1,2.579c-.312.536-.927.859-1.186,1.423a3.121,3.121,0,0,0,.217,2.2,1.991,1.991,0,0,1-.248,2.116,20.9,20.9,0,0,0,4.149.782,7.006,7.006,0,0,0,4.065-.906" transform="translate(-39.228 -26.512)"/><path class="e" d="M392.414,85.118a4.936,4.936,0,0,1,1.969-6.653,5.906,5.906,0,0,1,2.789-.6,10.265,10.265,0,0,1,2.826.251,5.08,5.08,0,0,1,2.451,1.372,6.291,6.291,0,0,1,1.319,4.733,13.2,13.2,0,0,1-1.659,5.662,1.394,1.394,0,0,1-.49.574.519.519,0,0,1-.681-.121" transform="translate(-39.228 -26.512)"/><path class="f" d="M397.769,97.586c1.632.11,3.056-1.289,3.227-3.8l.87-12.78-.06.883a1.026,1.026,0,0,0-.922-1.038l-5.065-.521a3.082,3.082,0,0,0-3.391,2.883,31.142,31.142,0,0,0,.052,5.776,3.635,3.635,0,0,0,2.71,3.282l-.175,2.118a2.964,2.964,0,0,0,2.754,3.2Z" transform="translate(-39.228 -26.512)"/><path class="e" d="M393.4,84.856a.374.374,0,0,0,.362.376.358.358,0,0,0,.385-.338.375.375,0,0,0-.362-.377.358.358,0,0,0-.385.339Z" transform="translate(-39.228 -26.512)"/><path class="e" d="M392.948,84.445c.047.049.33-.162.733-.162s.7.2.742.151c.021-.022-.027-.11-.156-.2a1.022,1.022,0,0,0-.594-.181.982.982,0,0,0-.582.19C392.967,84.335,392.925,84.424,392.948,84.445Z" transform="translate(-39.228 -26.512)"/><path class="e" d="M397.269,84.856a.374.374,0,0,0,.362.376.358.358,0,0,0,.385-.338.375.375,0,0,0-.362-.377.358.358,0,0,0-.385.339Z" transform="translate(-39.228 -26.512)"/><path class="e" d="M396.908,84.509c.046.049.329-.162.732-.162s.7.2.742.151c.021-.022-.026-.11-.155-.2a1.031,1.031,0,0,0-.594-.182,1,1,0,0,0-.583.19C396.927,84.4,396.885,84.487,396.908,84.509Z" transform="translate(-39.228 -26.512)"/><path class="e" d="M395.454,87.5a2.669,2.669,0,0,0-.654-.116c-.1-.01-.2-.03-.218-.1a.526.526,0,0,1,.068-.306q.15-.373.3-.784a13.494,13.494,0,0,0,.677-2.05,13.436,13.436,0,0,0-.841,1.991l-.289.789a.6.6,0,0,0-.052.4.258.258,0,0,0,.17.149.694.694,0,0,0,.174.024A2.6,2.6,0,0,0,395.454,87.5Z" transform="translate(-39.228 -26.512)"/><path class="d" d="M395.19,92.267a7.425,7.425,0,0,0,3.906-1.054,3.918,3.918,0,0,1-3.964,1.758Z" transform="translate(-39.228 -26.512)"/><path class="e" d="M395.628,88.47a.727.727,0,0,1,.649-.271.663.663,0,0,1,.459.244.421.421,0,0,1,.033.48.488.488,0,0,1-.528.135,1.514,1.514,0,0,1-.515-.306.449.449,0,0,1-.116-.118.136.136,0,0,1,0-.15" transform="translate(-39.228 -26.512)"/><path class="e" d="M396.641,87.775c-.066,0-.065.434-.439.745s-.839.265-.842.326c-.006.028.1.085.3.09a1.088,1.088,0,0,0,.7-.248.944.944,0,0,0,.339-.624C396.72,87.881,396.67,87.773,396.641,87.775Z" transform="translate(-39.228 -26.512)"/><path class="e" d="M396.724,83.8c.04.11.442.057.915.112s.855.184.918.085c.028-.047-.039-.15-.194-.255a1.6,1.6,0,0,0-1.4-.15C396.794,83.666,396.707,83.752,396.724,83.8Z" transform="translate(-39.228 -26.512)"/><path class="e" d="M393.093,83.279c.071.091.348,0,.682-.01s.616.06.681-.036c.028-.046-.016-.138-.14-.224a.989.989,0,0,0-1.1.037C393.1,83.14,393.062,83.235,393.093,83.279Z" transform="translate(-39.228 -26.512)"/><path class="e" d="M394.707,78.292c2.827-1.59,5.863-.479,8.15,1.82a5.638,5.638,0,0,0,1.617,1.385c.71.3,1.656.255,2.078.9.494.756-.171,1.823.189,2.651.331.763,1.377.983,1.766,1.718a2.8,2.8,0,0,1-.029,1.913,1.918,1.918,0,0,0,.28,1.846l-6.084,2.31a1.567,1.567,0,0,1-.855.093c-.864-.172-.927-.972-.846-1.634a2.721,2.721,0,0,0-.04-1.473c-.247-.534-.876-.821-1.1-1.366-.392-.963.7-1.966.565-3a1.936,1.936,0,0,0-1.238-1.4c-.6-.26-1.259-.345-1.881-.545a5.634,5.634,0,0,1-3.229-3.235,1.576,1.576,0,0,1,.654-1.982Z" transform="translate(-39.228 -26.512)"/><path class="i" d="M166.2,62.07l-17.727.146a4.4,4.4,0,0,0-4.265,4.535l.027,3.216a4.4,4.4,0,0,1-4.266,4.535l-34.554.285a4.409,4.409,0,0,1-4.343-4.465l-.027-3.216A4.408,4.408,0,0,0,96.7,62.642l-6.235.051-15.515.128A13.95,13.95,0,0,0,61.113,76.89l1.93,223.735a13.948,13.948,0,0,0,14.063,13.829l91.249-.751a13.949,13.949,0,0,0,13.833-14.069L180.259,75.9A13.95,13.95,0,0,0,166.2,62.07Z" transform="translate(-39.228 -26.512)"/><path class="j" d="M169.092,84.638c0,.06-2.3.148-5.147.2s-5.15.04-5.151-.02,2.3-.148,5.147-.2S169.091,84.578,169.092,84.638Z" transform="translate(-39.228 -26.512)"/><path class="j" d="M169.137,87.273c0,.06-2.3.148-5.147.2s-5.15.04-5.151-.02,2.3-.148,5.147-.2S169.136,87.213,169.137,87.273Z" transform="translate(-39.228 -26.512)"/><path class="j" d="M169.182,89.908c0,.059-2.3.148-5.147.2s-5.15.04-5.151-.02,2.3-.148,5.147-.2S169.181,89.847,169.182,89.908Z" transform="translate(-39.228 -26.512)"/><path class="j" d="M75.5,93.741a1.768,1.768,0,0,1,.214-.016l.6-.025,2.2-.071-.06.062c-.012-.487-.026-1.02-.04-1.594,0-.3-.03-.576,0-.918a.847.847,0,0,1,.732-.685c.355-.01.667-.029,1.051-.014a.853.853,0,0,1,.728.843c.015.743.031,1.52.047,2.325l-.1-.1,2.774-.053-.1.108c-.02-1.117-.041-2.272-.062-3.456,0-.3-.01-.589-.015-.88a.9.9,0,0,0-.4-.652L81.846,87.43l-1.18-1.144-.572-.555c-.2-.186-.351-.379-.577-.423a.748.748,0,0,0-.636.127c-.166.144-.344.346-.512.513l-.986,1.012c-.62.656-1.267,1.256-1.736,1.822a1.972,1.972,0,0,0-.131,1.036c0,.344,0,.67.007.978v2.581a3.039,3.039,0,0,1-.01.363,2.679,2.679,0,0,1-.022-.333c-.01-.268-.022-.6-.036-.991q-.021-.681-.05-1.587-.014-.47-.027-1c0-.178-.009-.359-.014-.546a1.159,1.159,0,0,1,.148-.582c.508-.633,1.116-1.2,1.74-1.87l.979-1.02c.177-.176.321-.351.531-.535a.94.94,0,0,1,.8-.166,1.5,1.5,0,0,1,.67.471l.574.552,1.184,1.14L83.2,88.46a2.3,2.3,0,0,1,.313.333.913.913,0,0,1,.15.467q.007.439.015.884c.02,1.184.039,2.339.057,3.457v.106h-.106l-2.774.042h-.1v-.1c-.011-.8-.022-1.582-.033-2.325a.669.669,0,0,0-.566-.669c-.32-.014-.7,0-1.006.006a.682.682,0,0,0-.594.545c-.024.279,0,.6,0,.886q.007.863.015,1.6v.062H75.692a1.129,1.129,0,0,1-.192-.008Z" transform="translate(-39.228 -26.512)"/><rect class="f" width="97.271" height="17.694" rx="7.461" transform="translate(32.251 81.193) rotate(-0.505)"/><path class="j" d="M161.443,124.605s.19-.023.558-.051a8.061,8.061,0,0,0,1.6-.327,7.662,7.662,0,0,0,2.328-1.251,7.314,7.314,0,0,0,2.194-2.832,7.121,7.121,0,0,0,.567-2.067,18.8,18.8,0,0,0,.046-2.383,16,16,0,0,0-.137-2.592,7.363,7.363,0,0,0-5.928-5.952,20.346,20.346,0,0,0-3.382-.1l-3.594.038-76.751.73a7.292,7.292,0,0,0-7.2,6.738c-.053.882,0,1.813-.007,2.712a8.484,8.484,0,0,0,.3,2.629,7.339,7.339,0,0,0,3.05,4.1,7.006,7.006,0,0,0,2.365.984,10.749,10.749,0,0,0,2.561.17l5.152-.043,9.974-.082,34.505-.265,23.263-.148,6.325-.022h1.645c.37,0,.56.013.56.013s-.19.014-.56.024l-1.645.032-6.324.09-23.262.263-34.5.343-9.974.094-5.152.048a11.085,11.085,0,0,1-2.64-.176,7.351,7.351,0,0,1-2.481-1.031A7.7,7.7,0,0,1,71.7,120a8.854,8.854,0,0,1-.314-2.726c.006-.912-.048-1.8.007-2.741a7.653,7.653,0,0,1,7.552-7.075l76.751-.623,3.6-.026a20.489,20.489,0,0,1,3.426.116,7.563,7.563,0,0,1,6.071,6.146,16.185,16.185,0,0,1,.125,2.622,18.986,18.986,0,0,1-.063,2.4,7.271,7.271,0,0,1-.594,2.1,7.393,7.393,0,0,1-2.256,2.86,7.676,7.676,0,0,1-2.374,1.236,7.517,7.517,0,0,1-1.621.294C161.633,124.606,161.443,124.605,161.443,124.605Z" transform="translate(-39.228 -26.512)"/><path class="j" d="M162.863,115.324c-.035,0-.034-.285-.176-.764a3.191,3.191,0,0,0-1.189-1.67,3.049,3.049,0,1,0,.043,4.891,3.2,3.2,0,0,0,1.16-1.691c.133-.481.127-.768.162-.766.012,0,.021.07.028.206a2.453,2.453,0,0,1-.053.593,3.194,3.194,0,0,1-1.14,1.86,3.323,3.323,0,0,1-3.161.546,3.36,3.36,0,0,1-.055-6.334,3.323,3.323,0,0,1,3.169.49,3.19,3.19,0,0,1,1.173,1.839,2.41,2.41,0,0,1,.063.593C162.883,115.253,162.875,115.324,162.863,115.324Z" transform="translate(-39.228 -26.512)"/><path class="j" d="M164.676,120.834a12.443,12.443,0,0,1-2.9-3.082A12.443,12.443,0,0,1,164.676,120.834Z" transform="translate(-39.228 -26.512)"/><path class="e" d="M84.674,114.665l-1.735.015v-.451l3.992-.035v.451l-1.735.015.039,4.487h-.522Z" transform="translate(-39.228 -26.512)"/><path class="e" d="M90.524,117.4l-3.1.027a1.373,1.373,0,0,0,1.471,1.278,1.465,1.465,0,0,0,1.132-.5l.285.322a1.962,1.962,0,0,1-3.39-1.254,1.787,1.787,0,0,1,1.8-1.9,1.768,1.768,0,0,1,1.815,1.868A1.229,1.229,0,0,0,90.524,117.4Zm-3.106-.347,2.631-.023a1.318,1.318,0,0,0-2.631.023Z" transform="translate(-39.228 -26.512)"/><path class="e" d="M93.826,119.071l-1.191-1.542-1.172,1.563H90.9l1.45-1.918-1.412-1.793H91.5l1.127,1.443,1.1-1.463.55,0L92.9,117.174l1.5,1.892Z" transform="translate(-39.228 -26.512)"/><path class="e" d="M97.182,118.816a1.191,1.191,0,0,1-.781.267.982.982,0,0,1-1.1-1.069l-.02-2.243-.663.006v-.424l.664-.006-.007-.811h.5l.007.811,1.129-.01v.423l-1.129.01.02,2.215a.594.594,0,0,0,.647.672.827.827,0,0,0,.549-.2Z" transform="translate(-39.228 -26.512)"/><rect class="k" width="21.291" height="21.291" transform="translate(36.639 113.554) rotate(-0.505)"/><path class="k" d="M138.134,141.661c0,.1-7.117.244-15.9.321s-15.9.059-15.9-.041,7.116-.243,15.9-.321S138.133,141.561,138.134,141.661Z" transform="translate(-39.228 -26.512)"/><path class="j" d="M163.548,147.964c0,.1-12.794.294-28.575.433s-28.58.171-28.581.071,12.792-.294,28.578-.433S163.547,147.864,163.548,147.964Z" transform="translate(-39.228 -26.512)"/><path class="j" d="M162.917,152.631c0,.1-12.644.292-28.239.43s-28.244.168-28.244.068,12.64-.293,28.241-.43S162.916,152.531,162.917,152.631Z" transform="translate(-39.228 -26.512)"/><path class="j" d="M139.822,157.281c0,.1-7.465.246-16.672.328s-16.676.066-16.677-.034,7.463-.247,16.673-.328S139.821,157.181,139.822,157.281Z" transform="translate(-39.228 -26.512)"/><rect class="k" width="21.291" height="21.291" transform="translate(36.987 148.872) rotate(-0.516)"/><path class="k" d="M138.447,177.132c0,.1-7.117.244-15.9.321s-15.9.059-15.9-.041,7.116-.244,15.9-.321S138.446,177.032,138.447,177.132Z" transform="translate(-39.228 -26.512)"/><path class="j" d="M163.861,183.434c0,.1-12.794.294-28.575.433s-28.58.172-28.581.071,12.792-.293,28.578-.432S163.86,183.335,163.861,183.434Z" transform="translate(-39.228 -26.512)"/><path class="j" d="M163.229,188.1c0,.1-12.643.293-28.238.43s-28.244.168-28.245.068,12.641-.292,28.242-.43S163.228,188,163.229,188.1Z" transform="translate(-39.228 -26.512)"/><path class="j" d="M140.135,192.751c0,.1-7.465.247-16.673.328s-16.676.066-16.676-.033,7.462-.247,16.673-.329S140.134,192.651,140.135,192.751Z" transform="translate(-39.228 -26.512)"/><rect class="l" width="21.291" height="21.291" transform="translate(37.263 184.35) rotate(-0.505)"/><path class="k" d="M138.76,212.6c0,.1-7.118.244-15.9.322s-15.9.059-15.9-.041,7.116-.244,15.9-.321S138.759,212.5,138.76,212.6Z" transform="translate(-39.228 -26.512)"/><path class="j" d="M164.173,218.9c0,.1-12.794.294-28.574.433s-28.58.171-28.581.071,12.791-.294,28.578-.433S164.173,218.8,164.173,218.9Z" transform="translate(-39.228 -26.512)"/><path class="j" d="M163.542,223.572c0,.1-12.643.293-28.238.43s-28.244.168-28.245.068,12.641-.292,28.241-.43S163.541,223.472,163.542,223.572Z" transform="translate(-39.228 -26.512)"/><path class="j" d="M140.447,228.222c0,.1-7.464.247-16.672.328s-16.676.066-16.677-.034,7.463-.246,16.674-.328S140.446,228.122,140.447,228.222Z" transform="translate(-39.228 -26.512)"/><rect class="k" width="21.291" height="21.291" transform="translate(37.574 219.82) rotate(-0.505)"/><path class="l" d="M139.073,248.073c0,.1-7.118.244-15.9.322s-15.9.059-15.9-.041,7.116-.244,15.9-.321S139.072,247.974,139.073,248.073Z" transform="translate(-39.228 -26.512)"/><path class="j" d="M164.486,254.376c0,.1-12.794.294-28.574.433s-28.58.171-28.581.071,12.791-.294,28.577-.433S164.485,254.276,164.486,254.376Z" transform="translate(-39.228 -26.512)"/><path class="j" d="M163.855,259.043c0,.1-12.644.293-28.239.43s-28.243.168-28.244.068,12.641-.292,28.241-.43S163.854,258.943,163.855,259.043Z" transform="translate(-39.228 -26.512)"/><path class="j" d="M140.76,263.693c0,.1-7.464.247-16.672.328s-16.676.066-16.677-.034,7.463-.247,16.674-.328S140.759,263.593,140.76,263.693Z" transform="translate(-39.228 -26.512)"/><rect class="e" width="21.291" height="21.291" transform="translate(37.943 255.288) rotate(-0.516)"/><path class="e" d="M139.385,283.544c0,.1-7.117.244-15.9.321s-15.9.06-15.9-.04,7.116-.244,15.9-.321S139.385,283.444,139.385,283.544Z" transform="translate(-39.228 -26.512)"/><path class="d" d="M164.8,289.847c0,.1-12.794.294-28.575.433s-28.58.171-28.58.071,12.791-.294,28.577-.433S164.8,289.747,164.8,289.847Z" transform="translate(-39.228 -26.512)"/><path class="d" d="M164.168,294.514c0,.1-12.644.292-28.239.43s-28.243.168-28.244.068,12.641-.293,28.241-.43S164.167,294.414,164.168,294.514Z" transform="translate(-39.228 -26.512)"/><path class="d" d="M141.073,299.164c0,.1-7.465.247-16.672.328s-16.676.066-16.677-.034,7.463-.247,16.674-.328S141.072,299.064,141.073,299.164Z" transform="translate(-39.228 -26.512)"/><g class="m"><rect width="21.291" height="21.291" transform="translate(37.574 219.82) rotate(-0.505)"/></g><path class="i" d="M415.366,305.349l-11.834-.082a2.935,2.935,0,0,0-2.892,2.975l-.015,2.14a2.934,2.934,0,0,1-2.893,2.976l-23.066-.162a2.938,2.938,0,0,1-2.853-3.015l.015-2.141a2.938,2.938,0,0,0-2.854-3.015l-4.162-.03-10.357-.072a9.3,9.3,0,0,0-9.376,9.224l-.861,95.981a9.3,9.3,0,0,0,9.246,9.347l60.911.426a9.3,9.3,0,0,0,9.375-9.223l.861-95.982A9.3,9.3,0,0,0,415.366,305.349Z" transform="translate(-39.228 -26.512)"/><rect class="k" width="64.361" height="44.69" transform="translate(313.08 306.131) rotate(0.137)"/><circle class="h" cx="9.341" cy="9.341" r="9.341" transform="translate(334.211 321.148) rotate(-11.329)"/><path class="k" d="M342.906,328.464l.01-4.209,3.639,2.113,3.639,2.113-3.649,2.1-3.65,2.1Z"/><path class="j" d="M359.148,384.035v-.72a.084.084,0,0,1,.126-.072l.623.361.623.362a.084.084,0,0,1,0,.145l-.624.359-.625.358a.083.083,0,0,1-.125-.073Z" transform="translate(-39.228 -26.512)"/><path class="j" d="M364.994,383.485h-.544a.084.084,0,0,0-.084.084v.96a.084.084,0,0,0,.083.084h.544l.833.837v-2.8Z" transform="translate(-39.228 -26.512)"/><path class="j" d="M361.023,384.9h0a.144.144,0,0,1-.143-.144v-1.443a.143.143,0,0,1,.144-.143h0a.142.142,0,0,1,.143.143v1.444A.144.144,0,0,1,361.023,384.9Z" transform="translate(-39.228 -26.512)"/><path class="j" d="M366.166,383.177v1.75a.937.937,0,0,0,0-1.75Z" transform="translate(-39.228 -26.512)"/><path class="j" d="M366.168,382.51v.365a1.224,1.224,0,0,1-.006,2.354v.365a1.578,1.578,0,0,0,.008-3.084Z" transform="translate(-39.228 -26.512)"/><path class="j" d="M370.68,383.487v1.7h-.24V383.7h-.383v-.211Z" transform="translate(-39.228 -26.512)"/><path class="j" d="M371.044,384.052a.161.161,0,0,1,.165-.164.159.159,0,0,1,.159.165.162.162,0,1,1-.324,0Zm0,.979a.163.163,0,0,1,.165-.165.159.159,0,0,1,.16.165.161.161,0,0,1-.16.167.164.164,0,0,1-.168-.167Z" transform="translate(-39.228 -26.512)"/><path class="j" d="M371.6,384.337c0-.553.3-.867.7-.866s.69.317.688.869-.3.866-.692.865S371.6,384.889,371.6,384.337Zm1.141,0c0-.433-.182-.652-.446-.652s-.451.217-.453.65.183.652.449.653.446-.215.447-.649Z" transform="translate(-39.228 -26.512)"/><path class="j" d="M373.732,383.494v1.7h-.24v-1.485h-.383V383.5Z" transform="translate(-39.228 -26.512)"/><path class="j" d="M375.37,383.154h.21l-.8,2.28h-.211Z" transform="translate(-39.228 -26.512)"/><path class="j" d="M377.591,384.719c0,.308-.263.5-.677.5s-.671-.192-.67-.5a.421.421,0,0,1,.3-.409.384.384,0,0,1-.237-.366c0-.284.246-.46.612-.459s.615.178.614.462a.384.384,0,0,1-.24.365A.423.423,0,0,1,377.591,384.719Zm-.242-.008c0-.186-.164-.3-.433-.3s-.429.115-.43.3.16.311.428.311S377.348,384.9,377.349,384.711Zm-.8-.76c0,.167.138.272.37.272s.379-.1.379-.27-.15-.274-.377-.275-.374.1-.375.273Z" transform="translate(-39.228 -26.512)"/><path class="j" d="M377.81,384.068a.161.161,0,0,1,.165-.164.159.159,0,0,1,.159.165.161.161,0,0,1-.16.167.164.164,0,0,1-.164-.168Zm0,.979a.163.163,0,0,1,.165-.165.166.166,0,1,1,0,.332.164.164,0,0,1-.168-.167Z" transform="translate(-39.228 -26.512)"/><path class="j" d="M378.363,384.353c0-.552.3-.867.7-.866s.69.317.688.869-.3.866-.692.866S378.362,384.9,378.363,384.353Zm1.141,0c0-.434-.182-.653-.446-.653s-.451.217-.453.65.183.652.449.653.446-.214.446-.647Z" transform="translate(-39.228 -26.512)"/><path class="j" d="M379.978,384.357c0-.553.3-.867.7-.866s.689.317.688.869-.3.866-.692.865S379.977,384.909,379.978,384.357Zm1.141,0c0-.434-.183-.653-.447-.653s-.451.217-.452.65.183.652.449.653.449-.214.45-.647Z" transform="translate(-39.228 -26.512)"/><path class="j" d="M352.964,384.9h0a.286.286,0,0,1-.285-.286v-1.493a.284.284,0,0,1,.286-.285h0a.284.284,0,0,1,.285.286v1.493A.287.287,0,0,1,352.964,384.9Z" transform="translate(-39.228 -26.512)"/><path class="j" d="M354.26,384.9h0a.285.285,0,0,1-.285-.286v-1.493a.284.284,0,0,1,.286-.285h0a.284.284,0,0,1,.285.286v1.493a.286.286,0,0,1-.286.285Z" transform="translate(-39.228 -26.512)"/><path class="e" d="M416.244,381.46l-63.445-.152a.611.611,0,0,1-.609-.611h0a.611.611,0,0,1,.612-.609l63.445.152a.61.61,0,0,1,.609.611h0a.611.611,0,0,1-.612.609Z" transform="translate(-39.228 -26.512)"/><path class="k" d="M376.116,381.364l-23.317-.056a.611.611,0,0,1-.609-.611h0a.611.611,0,0,1,.612-.609l23.317.056a.529.529,0,0,1,.529.531v.16a.53.53,0,0,1-.532.529Z" transform="translate(-39.228 -26.512)"/><path class="k" d="M377.265,380.757a1.165,1.165,0,1,1-1.162-1.168A1.165,1.165,0,0,1,377.265,380.757Z" transform="translate(-39.228 -26.512)"/><path class="j" d="M416.353,392.7c0,.144-14.179.227-31.664.185s-31.667-.193-31.667-.336,14.176-.227,31.668-.185S416.353,392.56,416.353,392.7Z" transform="translate(-39.228 -26.512)"/><path class="j" d="M416.338,398.964c0,.144-14.179.227-31.664.185s-31.667-.193-31.667-.337,14.176-.226,31.668-.184S416.338,398.82,416.338,398.964Z" transform="translate(-39.228 -26.512)"/><path class="j" d="M416.323,405.224c0,.144-14.179.227-31.664.185s-31.667-.193-31.667-.336,14.176-.227,31.668-.185S416.323,405.08,416.323,405.224Z" transform="translate(-39.228 -26.512)"/><path class="i" d="M415.768,132.558l-11.834-.054a2.934,2.934,0,0,0-2.885,2.982l-.01,2.14a2.935,2.935,0,0,1-2.886,2.983l-23.066-.107a2.938,2.938,0,0,1-2.861-3.009l.01-2.14a2.938,2.938,0,0,0-2.861-3.009l-4.162-.019-10.357-.048a9.3,9.3,0,0,0-9.354,9.246l-.631,148.934a9.3,9.3,0,0,0,9.268,9.325l60.912.28a9.3,9.3,0,0,0,9.353-9.245l.631-148.935a9.3,9.3,0,0,0-9.267-9.324Z" transform="translate(-39.228 -26.512)"/><path class="j" d="M414.621,154.138c0,.146-12.865.264-28.73.264s-28.733-.118-28.733-.264,12.861-.263,28.733-.263S414.621,153.993,414.621,154.138Z" transform="translate(-39.228 -26.512)"/><rect class="k" width="52.219" height="36.259" transform="translate(320.603 223.518)"/><path class="i" d="M307.2,168.983l-17.727-.01a4.4,4.4,0,0,0-4.3,4.5v3.216a4.4,4.4,0,0,1-4.3,4.5l-34.555-.02a4.408,4.408,0,0,1-4.3-4.5v-3.215a4.408,4.408,0,0,0-4.3-4.5h-6.235l-15.516-.009A13.95,13.95,0,0,0,202,182.892l-.044,223.744A13.95,13.95,0,0,0,215.9,420.588l91.25.053A13.949,13.949,0,0,0,321.106,406.7l.044-223.744a13.95,13.95,0,0,0-13.95-13.968Z" transform="translate(-39.228 -26.512)"/><path class="j" d="M310.033,193.07c0,.06-2.3.127-5.148.151s-5.15-.006-5.151-.066,2.3-.128,5.149-.151S310.033,193.01,310.033,193.07Z" transform="translate(-39.228 -26.512)"/><path class="j" d="M310.055,195.705c0,.06-2.3.127-5.148.151s-5.151-.006-5.151-.066,2.3-.128,5.149-.151S310.054,195.645,310.055,195.705Z" transform="translate(-39.228 -26.512)"/><path class="j" d="M310.077,198.34c0,.06-2.3.127-5.149.151s-5.15-.006-5.15-.066,2.3-.128,5.149-.151S310.076,198.28,310.077,198.34Z" transform="translate(-39.228 -26.512)"/><path class="j" d="M212.044,200.029a1.588,1.588,0,0,1,.214-.014l.6-.02,2.2-.052L215,200c-.008-.487-.016-1.02-.026-1.594,0-.3-.025-.576,0-.918a.843.843,0,0,1,.738-.678c.354-.007.666-.023,1.05,0a.852.852,0,0,1,.721.849l.027,2.326-.1-.1,2.774-.028-.106.107c-.01-1.117-.02-2.272-.03-3.456l-.008-.88a.9.9,0,0,0-.39-.656l-1.213-1.2-1.17-1.155-.567-.56c-.194-.187-.347-.382-.573-.428a.747.747,0,0,0-.637.122c-.168.142-.347.343-.516.507l-.995,1c-.627.65-1.279,1.244-1.753,1.806a1.957,1.957,0,0,0-.139,1.035v.977q-.006.9-.01,1.575c0,.4-.008.735-.011,1.007a3.55,3.55,0,0,1-.014.363,2.748,2.748,0,0,1-.019-.334l-.03-1-.035-1.587q-.009-.471-.019-1c0-.177-.005-.359-.008-.545a1.146,1.146,0,0,1,.153-.581c.513-.629,1.125-1.185,1.756-1.855l.988-1.012c.178-.174.323-.348.535-.53a.94.94,0,0,1,.8-.158,1.5,1.5,0,0,1,.666.476l.569.557,1.174,1.151,1.215,1.193a2.323,2.323,0,0,1,.309.336.9.9,0,0,1,.146.467c0,.293,0,.588.008.885.009,1.184.018,2.339.026,3.457v.106h-.106l-2.775.018h-.1v-.1c0-.8-.008-1.582-.012-2.326a.669.669,0,0,0-.56-.673c-.319-.017-.7-.006-1.006,0a.682.682,0,0,0-.6.539c-.026.279-.006.6-.012.887v1.657h-.061l-2.236-.015-.582-.01a1.174,1.174,0,0,1-.194-.008Z" transform="translate(-39.228 -26.512)"/><rect class="k" width="21.291" height="21.291" transform="translate(178.509 316.303)"/><path class="k" d="M279.986,345.105c0,.1-7.119.181-15.9.181s-15.9-.08-15.9-.181,7.118-.181,15.9-.181S279.986,345.006,279.986,345.105Z" transform="translate(-39.228 -26.512)"/><path class="j" d="M305.343,351.632c0,.1-12.8.181-28.577.181s-28.58-.081-28.58-.181,12.793-.181,28.58-.181S305.343,351.532,305.343,351.632Z" transform="translate(-39.228 -26.512)"/><path class="j" d="M304.671,356.293c0,.1-12.646.181-28.241.181s-28.244-.081-28.244-.181,12.643-.181,28.244-.181S304.671,356.193,304.671,356.293Z" transform="translate(-39.228 -26.512)"/><path class="j" d="M281.536,360.739c0,.1-7.466.181-16.674.181s-16.676-.081-16.676-.181,7.465-.181,16.676-.181S281.536,360.639,281.536,360.739Z" transform="translate(-39.228 -26.512)"/><g class="m"><rect width="21.291" height="21.291" transform="translate(178.509 316.303)"/></g><rect class="k" width="21.291" height="21.291" transform="translate(178.509 350.955)"/><path class="k" d="M279.986,379.758c0,.1-7.119.181-15.9.181s-15.9-.081-15.9-.181,7.118-.181,15.9-.181S279.986,379.658,279.986,379.758Z" transform="translate(-39.228 -26.512)"/><path class="j" d="M305.343,386.284c0,.1-12.8.181-28.577.181s-28.58-.081-28.58-.181,12.793-.181,28.58-.181S305.343,386.184,305.343,386.284Z" transform="translate(-39.228 -26.512)"/><path class="j" d="M304.671,390.945c0,.1-12.646.181-28.241.181s-28.244-.081-28.244-.181,12.643-.181,28.244-.181S304.671,390.845,304.671,390.945Z" transform="translate(-39.228 -26.512)"/><path class="j" d="M281.536,395.392c0,.1-7.466.181-16.674.181s-16.676-.081-16.676-.181,7.465-.181,16.676-.181S281.536,395.292,281.536,395.392Z" transform="translate(-39.228 -26.512)"/><g class="m"><rect width="21.291" height="21.291" transform="translate(178.509 350.955)"/></g><rect class="k" width="49.293" height="65.582" transform="translate(190.203 252.995) rotate(-89.681)"/><path class="k" d="M189.356,252.994l23.076-30.511,14.083,19.248,9.68-10.194,18.742,21.823Z"/><path class="k" d="M271.894,245.353a5.164,5.164,0,1,1-5.135-5.192A5.164,5.164,0,0,1,271.894,245.353Z" transform="translate(-39.228 -26.512)"/><g class="n"><path d="M189.356,252.994l23.076-30.511,14.083,19.248,9.68-10.194,18.742,21.823Z"/></g><g class="n"><path d="M271.894,245.353a5.164,5.164,0,1,1-5.135-5.192A5.164,5.164,0,0,1,271.894,245.353Z" transform="translate(-39.228 -26.512)"/></g><path class="j" d="M304.049,289.24c0,.144-19.046.26-42.535.26s-42.539-.116-42.539-.26,19.042-.261,42.539-.261S304.049,289.1,304.049,289.24Z" transform="translate(-39.228 -26.512)"/><path class="j" d="M304.049,294.777c0,.144-19.046.261-42.535.261s-42.539-.117-42.539-.261,19.042-.26,42.539-.26S304.049,294.633,304.049,294.777Z" transform="translate(-39.228 -26.512)"/><path class="k" d="M275.381,321.32H247.643a7.27,7.27,0,0,1-7.27-7.27h0a7.27,7.27,0,0,1,7.27-7.27h27.738a7.27,7.27,0,0,1,7.27,7.27h0a7.27,7.27,0,0,1-7.27,7.27Z" transform="translate(-39.228 -26.512)"/><path class="e" d="M319.942,328.546c0,.144-26.224.26-58.565.26s-58.57-.116-58.57-.26,26.218-.261,58.57-.261S319.942,328.4,319.942,328.546Z" transform="translate(-39.228 -26.512)"/><path class="k" d="M285.647,218.211c0,.144-10.806.261-24.134.261s-24.136-.117-24.136-.261,10.8-.26,24.136-.26S285.647,218.068,285.647,218.211Z" transform="translate(-39.228 -26.512)"/><path class="k" d="M290.478,314.05a1.582,1.582,0,1,1-1.581-1.581,1.582,1.582,0,0,1,1.581,1.581Z" transform="translate(-39.228 -26.512)"/><path class="k" d="M354.471,209.809a2.153,2.153,0,0,1-.386.025l-1.136.025-4.394.046-16.355.079.175-.174c-.009,15.322-.023,37.676-.039,62.529-.042,15.244-.082,29.546-.116,41.712v.226h-.226l-31.232-.093L292,314.12l-2.31-.034-.592-.018a.1.1,0,1,1,0-.036l.592-.018,2.31-.034,8.762-.063,31.232-.093-.226.226c.014-12.166.031-26.468.049-41.712.083-24.853.158-47.207.209-62.529v-.176h.175l16.355.08,4.394.046,1.136.024A2.422,2.422,0,0,1,354.471,209.809Z" transform="translate(-39.228 -26.512)"/><circle class="h" cx="7.579" cy="7.579" r="7.579" transform="translate(339.133 234)"/><path class="k" d="M344.847,241.579v-3.414l2.957,1.707,2.957,1.707-2.957,1.708-2.957,1.707Z"/><rect class="l" width="38.914" height="51.774" transform="translate(319.834 175.043) rotate(-89.681)"/><path class="j" d="M319.166,175.042l18.218-24.088,11.117,15.2,7.643-8.048,14.795,17.228Z"/><path class="j" d="M392.585,174.592a4.077,4.077,0,1,1-4.054-4.1,4.077,4.077,0,0,1,4.054,4.1Z" transform="translate(-39.228 -26.512)"/><rect class="l" width="40.079" height="2.681" transform="translate(325.876 182.763)"/><path class="j" d="M413.876,219.653c0,.145-12.865.263-28.731.263s-28.733-.118-28.733-.263,12.861-.264,28.733-.264S413.876,219.507,413.876,219.653Z" transform="translate(-39.228 -26.512)"/><path class="j" d="M413.876,226.992c0,.146-12.865.263-28.731.263s-28.733-.117-28.733-.263,12.861-.263,28.733-.263S413.876,226.846,413.876,226.992Z" transform="translate(-39.228 -26.512)"/><path class="j" d="M413.876,234.331c0,.146-12.865.263-28.731.263s-28.733-.117-28.733-.263,12.861-.263,28.733-.263S413.876,234.185,413.876,234.331Z" transform="translate(-39.228 -26.512)"/><path class="j" d="M413.876,241.67c0,.146-12.865.264-28.731.264s-28.733-.118-28.733-.264,12.861-.263,28.733-.263S413.876,241.525,413.876,241.67Z" transform="translate(-39.228 -26.512)"/><path class="k" d="M356.052,209.809a1.581,1.581,0,1,1-1.581-1.581,1.581,1.581,0,0,1,1.581,1.581Z" transform="translate(-39.228 -26.512)"/><path class="k" d="M387.466,291.221a1.537,1.537,0,1,1-1.526-1.351,1.446,1.446,0,0,1,1.526,1.351Z" transform="translate(-39.228 -26.512)"/><path class="k" d="M387.466,326.876a1.537,1.537,0,1,1-1.526-1.351,1.446,1.446,0,0,1,1.526,1.351Z" transform="translate(-39.228 -26.512)"/><path class="k" d="M385.94,326.876c-.144,0-.26-7.982-.26-17.827s.116-17.828.26-17.828.26,7.981.26,17.828S386.084,326.876,385.94,326.876Z" transform="translate(-39.228 -26.512)"/><path class="k" d="M261.375,205.686a1.151,1.151,0,0,1-.023-.27c-.006-.2-.013-.466-.022-.8-.01-.731-.024-1.762-.042-3.082-.018-2.717-.043-6.621-.075-11.5-.023-9.828-.055-23.574-.091-39.376l.252.253-17.448.007-51.252-.076-15.532-.083-4.222-.049-1.1-.025a1.989,1.989,0,0,1-.374-.027,1.987,1.987,0,0,1,.374-.027l1.1-.026,4.222-.048,15.532-.083,51.252-.076,17.448.007h.254v.253c-.036,15.8-.068,29.548-.091,39.376-.031,4.878-.057,8.781-.074,11.5-.018,1.32-.033,2.351-.043,3.082-.009.33-.016.593-.022.8a1.276,1.276,0,0,1-.023.27Z" transform="translate(-39.228 -26.512)"/><path class="k" d="M262.956,205.686a1.582,1.582,0,1,1-1.581-1.581,1.582,1.582,0,0,1,1.581,1.581Z" transform="translate(-39.228 -26.512)"/><path class="k" d="M173.029,150.664a1.582,1.582,0,1,1-1.581-1.581,1.582,1.582,0,0,1,1.581,1.581Z" transform="translate(-39.228 -26.512)"/></g></svg>